<?xml version="1.0" standalone="no"?>
<!DOCTYPE svg PUBLIC "-//W3C//DTD SVG 20010904//EN"
 "http://www.w3.org/TR/2001/REC-SVG-20010904/DTD/svg10.dtd">
<svg version="1.0" xmlns="http://www.w3.org/2000/svg"
 width="700.000000pt" height="700.000000pt" viewBox="0 0 700.000000 700.000000"
 preserveAspectRatio="xMidYMid meet">
<metadata>
Created by potrace 1.14, written by Peter Selinger 2001-2017
</metadata>
<g transform="translate(0.000000,700.000000) scale(0.100000,-0.100000)"
fill="#000000" stroke="none">
<path d="M3467 6684 c-1 -1 -60 -4 -132 -8 -71 -3 -141 -8 -155 -10 -14 -3
-47 -7 -75 -11 -43 -5 -160 -25 -230 -39 -381 -78 -806 -272 -1140 -521 -146
-110 -178 -138 -326 -285 -225 -224 -383 -438 -532 -722 -84 -158 -186 -412
-218 -541 -6 -27 -17 -50 -23 -52 -6 -2 -112 -6 -236 -7 l-225 -3 -50 -32
c-57 -37 -91 -82 -109 -145 -14 -47 -16 -701 -2 -813 59 -504 159 -850 361
-1250 306 -606 778 -1109 1355 -1444 69 -40 132 -77 140 -82 8 -5 24 -13 35
-18 11 -5 67 -32 125 -59 230 -109 564 -217 795 -257 17 -3 37 -8 45 -10 8 -3
33 -7 55 -10 22 -3 51 -7 64 -10 35 -7 136 -17 296 -30 138 -12 413 -7 565 10
25 3 65 8 90 10 254 29 589 115 854 221 800 320 1448 917 1842 1694 122 242
265 665 298 884 4 21 8 41 10 45 2 3 6 29 10 56 3 28 8 60 10 72 3 12 8 53 11
90 4 37 9 79 12 93 11 58 15 765 4 807 -17 63 -68 124 -131 155 -30 15 -59 27
-65 27 -5 -1 -105 -1 -222 0 l-212 1 -11 43 c-28 109 -107 319 -171 454 -209
439 -540 840 -929 1124 -77 56 -169 119 -175 119 -4 0 -25 13 -48 29 -60 40
-255 141 -370 190 -94 39 -306 114 -358 125 -13 3 -69 16 -124 29 -111 26
-205 44 -280 53 -27 3 -62 7 -76 10 -42 6 -347 22 -352 18z m250 -338 c43 -3
92 -9 108 -11 17 -3 44 -7 60 -9 28 -3 49 -7 130 -21 54 -10 80 -16 97 -21 9
-3 25 -7 36 -9 38 -7 168 -47 237 -72 403 -148 731 -362 1021 -663 114 -119
239 -279 331 -425 55 -87 155 -282 199 -385 23 -55 84 -227 84 -237 0 -2
-1134 -3 -2519 -3 l-2519 0 33 93 c140 392 342 716 620 992 127 127 165 159
300 260 143 106 262 178 410 250 66 31 128 61 137 66 109 55 448 149 628 175
14 2 41 6 60 8 19 3 82 8 140 12 58 4 106 7 107 8 5 4 229 -2 300 -8z"/>
</g>
</svg>
