<svg width="13" height="18" viewBox="0 0 13 18" fill="none" xmlns="http://www.w3.org/2000/svg">
<path d="M0.308949 18V0.545454H6.41122C7.62713 0.545454 8.62997 0.755682 9.41974 1.17614C10.2095 1.59091 10.7976 2.15057 11.1839 2.85511C11.5703 3.55398 11.7635 4.32954 11.7635 5.18182C11.7635 5.93182 11.63 6.55114 11.3629 7.03977C11.1016 7.52841 10.755 7.91477 10.3232 8.19886C9.89702 8.48295 9.43395 8.69318 8.93395 8.82955V9C9.46804 9.03409 10.005 9.22159 10.5447 9.5625C11.0845 9.90341 11.5362 10.392 11.8999 11.0284C12.2635 11.6648 12.4453 12.4432 12.4453 13.3636C12.4453 14.2386 12.2464 15.0256 11.8487 15.7244C11.451 16.4233 10.8232 16.9773 9.9652 17.3864C9.10724 17.7955 7.99077 18 6.61577 18H0.308949ZM2.42259 16.125H6.61577C7.99645 16.125 8.97656 15.858 9.55611 15.3239C10.1413 14.7841 10.4339 14.1307 10.4339 13.3636C10.4339 12.7727 10.2834 12.2273 9.98224 11.7273C9.68111 11.2216 9.25213 10.8182 8.69531 10.517C8.13849 10.2102 7.4794 10.0568 6.71804 10.0568H2.42259V16.125ZM2.42259 8.21591H6.34304C6.9794 8.21591 7.55327 8.09091 8.06463 7.84091C8.58168 7.59091 8.99077 7.23864 9.2919 6.78409C9.59872 6.32955 9.75213 5.79545 9.75213 5.18182C9.75213 4.41477 9.48509 3.7642 8.95099 3.23011C8.4169 2.69034 7.57031 2.42045 6.41122 2.42045H2.42259V8.21591Z" fill="black"/>
</svg>
